# xmcd CD database file
#
# Track frame offsets:
#	150
#	15452
#	30227
#	44827
#	61971
#	75541
#	94186
#	107808
#	121889
#	134797
#	173624
#	188512
#	268685
#	294129
#	307660
#	329067
#
# Disc length: 4644 seconds
#
# Revision: 0
# Processed by: cddbd v1.5.2PL0 Copyright (c) Steve Scherf et al.
# Submitted via: CDex 1.70beta2
#
DISCID=d3122210
DTITLE=Lotta Sax Appeal - Four Brothers (The Cool School)
DYEAR=2003
DGENRE=Jazz
TTITLE0=Yardbird Suite (Lee Konitz)
TTITLE1=Four Brothers (Stan Getz, Zoot Sims, Serge Chaloff)
TTITLE2=Early Autumn (Stan Getz)
TTITLE3=Four and One Moore (Stan Getz, Allen Eager, Al Cohn, Brew Moore, Zoot Sims)
TTITLE4=Spiders Webb (Don Lanphere)
TTITLE5=Sound-Lee (Lee Konitz, Warne Marsh)
TTITLE6=You Go To My Head (Stan Getz)
TTITLE7=Let's Get Away From It All (Al Cohn)
TTITLE8=Cheek To Cheek (Brew Moore)
TTITLE9=Zoot Swings The Blues (Zoot Sims)
TTITLE10=Coops Solo (Bob Cooper)
TTITLE11=Mulligans Too (Gerry Mulligan, Allen Eager)
TTITLE12=Zootcase (Zoot Sims, Al Cohn)
TTITLE13=Chilli Pepper (Art Pepper)
TTITLE14=That Old Feeling (Don Rendell)
TTITLE15=Straight Life (Tubby Hayes)
EXTD=YEAR: 2003
EXTT0=
EXTT1=
EXTT2=
EXTT3=
EXTT4=
EXTT5=
EXTT6=
EXTT7=
EXTT8=
EXTT9=
EXTT10=
EXTT11=
EXTT12=
EXTT13=
EXTT14=
EXTT15=
PLAYORDER=
